# xmcd
#
# Track frame offsets: 
#        150
#        1692
#        22374
#        24023
#        48097
#        49473
#        65352
#        67057
#        80393
#        82833
#        83781
#        103853
#        117743
#        119211
#        136891
#        138470
#        160901
#        162513
#        175398
#        177546
#        200523
#
# Disc length: 2981 seconds
#
# Revision: 2
# Processed by: cddbd v1.5.2PL0 Copyright (c) Steve Scherf et al.
# Submitted via: ExactAudioCopy v0.99pb5
#
DISCID=2a0ba315
DTITLE=Steen1 - Runoja Kontrollihuoneesta
DYEAR=2009
DGENRE=Rap
TTITLE0=Skit 1 (feat. Notkea Rotta)
TTITLE1=Intro
TTITLE2=Skit 2 (feat. Shaka)
TTITLE3=Kaapissa On Natsi
TTITLE4=Skit 3 (feat. Kasperi Laine)
TTITLE5=RIP Aids-Timppa Ja Mats (chorus by Kasperi Laine)
TTITLE6=Skit 4 (feat. Kolea)
TTITLE7=Puuhamaa (feat. Happikaappi)
TTITLE8=Skit 5 (feat. Spürma)
TTITLE9=Skit 6 (feat. Davo)
TTITLE10=Kelaa (feat. Asa)
TTITLE11=Sananvapauden Väärinkäyttäjät (feat. Pyhimys)
TTITLE12=Skit 7 (feat. Kari Hietalahti)
TTITLE13=Käyttöohje
TTITLE14=Skit 8 (feat. Saurus)
TTITLE15=Mä En Ole Enää Töissä Täällä
TTITLE16=Skit 9 (feat. Ville Kalliosta)
TTITLE17=Muistilappuja
TTITLE18=Skit 10 (feat. Heikki Kuula)
TTITLE19=Seitsemän Vuotta
TTITLE20=Sinä
EXTD=
EXTT0=
EXTT1=
EXTT2=
EXTT3=
EXTT4=
EXTT5=
EXTT6=
EXTT7=
EXTT8=
EXTT9=
EXTT10=
EXTT11=
EXTT12=
EXTT13=
EXTT14=
EXTT15=
EXTT16=
EXTT17=
EXTT18=
EXTT19=
EXTT20=
PLAYORDER=
